<svg width="79" height="26" viewBox="0 0 79 26" fill="none" xmlns="http://www.w3.org/2000/svg">
<path d="M13.4235 0H8.23805L0.707031 5.33637V8.94253H6.69127L0.707031 13.1825V16.7886H6.69127L0.707031 21.0286V24.6411H5.88619L13.4235 19.3047V15.6922H7.4393L13.4235 11.4586V7.84611H7.4393L13.4235 3.6125V0Z" fill="white"/>
<path d="M27.5664 16.6936C25.1638 16.6936 23.9213 14.6909 23.9213 11.5093C23.9213 8.32778 25.1891 6.29338 27.5664 6.29338C29.9436 6.29338 31.2749 8.29609 31.2749 11.5093C31.2749 14.7225 29.9689 16.6936 27.5664 16.6936ZM31.1037 7.22501C30.782 6.0896 30.0984 5.09027 29.1567 4.37875C28.2151 3.66724 27.0669 3.28246 25.8865 3.28296C22.0069 3.28296 19.4015 6.78772 19.4015 11.522C19.4015 16.2563 22.0069 19.7167 25.8865 19.7167C27.0112 19.721 28.111 19.3857 29.0419 18.7547C29.9728 18.1237 30.6914 17.2263 31.1037 16.1802V19.3491H35.4777V3.62522H31.1037V7.22501Z" fill="white"/>
<path d="M55.8713 3.28296C53.1201 3.28296 51.6113 5.18428 50.9204 7.08559C50.3688 5.08921 48.8601 3.28296 46.1405 3.28296C43.421 3.28296 42.0581 4.90541 41.3038 6.84476V3.63156H36.8982V19.3554H41.3357V10.4066C41.3357 7.63063 42.2105 6.38212 44.0298 6.38212C45.8492 6.38212 46.6986 7.64967 46.6986 10.3495V19.3554H51.1361V10.4066C51.1361 7.63063 52.0046 6.38212 53.8303 6.38212C55.656 6.38212 56.4926 7.64967 56.4926 10.3495V19.3554H60.93V9.39254C60.911 5.86242 59.4023 3.28296 55.8713 3.28296Z" fill="white"/>
<path d="M70.096 16.6936C67.6934 16.6936 66.4194 14.6909 66.4194 11.5093C66.4194 8.32778 67.6871 6.29339 70.096 6.29339C72.5049 6.29339 73.773 8.2961 73.773 11.5093C73.773 14.7225 72.4986 16.6936 70.096 16.6936ZM71.8012 3.28297C70.6304 3.2809 69.4903 3.6575 68.5511 4.35656C67.612 5.05562 66.9243 6.03963 66.5906 7.16165V3.63157H62.1912V25.0277H66.5906V16.1993C67.009 17.2374 67.729 18.1264 68.6579 18.7511C69.5868 19.3759 70.6817 19.7078 71.8012 19.704C75.6872 19.704 78.2928 16.2309 78.2928 11.5093C78.2928 6.78772 75.6872 3.28297 71.8012 3.28297Z" fill="white"/>
</svg>
